<svg id="Layer_1" data-name="Layer 1" xmlns="http://www.w3.org/2000/svg" viewBox="0 0 214.55 214.55"><defs><style>.cls-1{fill:#8bbce5;}.cls-2{fill:#78479c;}.cls-3{fill:#28160e;}.cls-4{fill:#6e2a81;}.cls-5{fill:#d5bf83;}.cls-6{fill:#bb9c5a;}</style></defs><path class="cls-1" d="M63.07,190.21a15.18,15.18,0,0,1-3.87-2,90,90,0,0,1-11.39-7.95,93.35,93.35,0,0,1-11.39-11,105.5,105.5,0,0,1-7.74-10.16,94.73,94.73,0,0,1-13.75-33.55,88.47,88.47,0,0,1-1.54-11.93c-.23-3.79-.22-7.59-.1-11.37a82.84,82.84,0,0,1,1.49-12.33A93.58,93.58,0,0,1,18.3,76.46a87.56,87.56,0,0,1,6.54-14.64c1.39-2.47,2.79-4.94,4.41-7.26A95.78,95.78,0,0,1,35.75,46c1.69-1.93,3.4-3.84,5.23-5.63a100.84,100.84,0,0,1,11.81-9.92,92.45,92.45,0,0,1,15.85-9.11,89.47,89.47,0,0,1,18.82-6.13A95.88,95.88,0,0,1,101,13.37c3.8-.24,7.59-.23,11.37-.1a84.18,84.18,0,0,1,12.33,1.49,94.59,94.59,0,0,1,13.42,3.53,89.7,89.7,0,0,1,14.65,6.54A83.44,83.44,0,0,1,160,29.25,89.12,89.12,0,0,1,168.82,36c2,1.81,4,3.58,5.9,5.53A105.17,105.17,0,0,1,184.17,53a93.14,93.14,0,0,1,15.12,34.39,111.14,111.14,0,0,1,1.79,11.47,99.58,99.58,0,0,1,.24,10.65,84.67,84.67,0,0,1-1.18,13,91.52,91.52,0,0,1-5,18.49,89,89,0,0,1-7.49,15.2,98,98,0,0,1-11.45,15.14A94,94,0,0,1,160,185.19a88.65,88.65,0,0,1-9,5.42c-.48-.52-.33-1.16-.33-1.76q0-16.71,0-33.41a13.69,13.69,0,0,0-3.29-9.26,21.8,21.8,0,0,0-3.17-2.74,2.52,2.52,0,0,1-.61-1.38c-1.29-6.06-3.06-12-4.65-18a55.23,55.23,0,0,1-2-14.18,125.72,125.72,0,0,0-1.32-16.55,93.39,93.39,0,0,0-2.69-14.3c-.91-3.08-1.45-6.29-2.83-9.21a25.55,25.55,0,0,0-15-13.35,28.19,28.19,0,0,0-3.85-1.09c-.41-.09-1-.1-1-.63s.54-.55.9-.7a32.17,32.17,0,0,0,6.59-3.54,11.67,11.67,0,0,0,2-1.89,3.47,3.47,0,0,0,0-5A11.11,11.11,0,0,0,116,40.94a18.07,18.07,0,0,0-8.11-2c-4.06.06-6.49,2.65-6.21,6.73a18.08,18.08,0,0,0,2.15,7.23l.21.35c.71,1.29.63,1.59-.71,2.17a42.26,42.26,0,0,0-6,3.14c-4.8,3.07-8.9,6.84-11.56,12a44.51,44.51,0,0,0-4.65,14.81c-.55,4.31-.82,8.64-1,13a184.72,184.72,0,0,1-5,35.79c-.57,2.26-1.1,4.53-1.72,6.77-.14.48-.21,1-.73,1.3a15.77,15.77,0,0,0-5.24,3.32,12.91,12.91,0,0,0-3.84,9.33q0,16.77,0,33.53C63.45,189,63.65,189.7,63.07,190.21Z"/><path class="cls-2" d="M144.25,143.2a13.16,13.16,0,0,1,6.59,10A21.17,21.17,0,0,1,151,156q0,17.31,0,34.6a93.88,93.88,0,0,1-49,10.63,90.47,90.47,0,0,1-24.14-4.56A93.89,93.89,0,0,1,64.35,191a3.06,3.06,0,0,1-1.28-.82c0-.75,0-1.5,0-2.26,0-11.25,0-22.5,0-33.76A13.36,13.36,0,0,1,72.58,142c.39.54.08,1.06-.06,1.57C71.06,148.81,69.4,154,68,159.31a46.33,46.33,0,0,0-1.8,9.46c-.35,5.61,2.27,9.63,8.55,10.31a20.53,20.53,0,0,1-2-4.4c-1.07-4.39-.63-8.45,2.8-11.76A11.26,11.26,0,0,1,81.45,160c1.2-.22,1.54.19,1.13,1.34-.85,2.35-1.83,4.65-2.71,7a3.26,3.26,0,0,0-.32,1.06c.43.22.76,0,1.1-.14,5.95-2.13,9.46-6.4,10.92-12.46a53.38,53.38,0,0,0,1.24-12.22c0-2,0-4,0-6A1.38,1.38,0,0,1,94,137a6.84,6.84,0,0,1,2.42-.32c.87.54,1.13,1.51,1.59,2.32.78,1.41,1.45,2.87,2.17,4.3.51,1,.58,1.05,1.33.26,1.69-1.79,3.63-3.32,5.33-5.1.81-.85,1-.84,1.83,0,1.73,1.75,3.51,3.44,5.32,5.1.73.67.78.66,1.19-.23.84-1.83,1.68-3.66,2.58-5.47.21-.42.39-.89.94-1a19.82,19.82,0,0,1,3.82.73c.73.14.86.72.84,1.34-.09,2.15-.23,4.3-.3,6.45-.1,3.13-.56,6.26-.14,9.41a21.22,21.22,0,0,0,4.94,10.77,16.36,16.36,0,0,0,3.17,3.21,17.76,17.76,0,0,1,.81-10.93c.17-.4.27-1,.75-1s.39.7.42,1.13a43.15,43.15,0,0,0,2.2,11.24,33.21,33.21,0,0,0,4.57,8.45c.61.84.83.84,1.26-.05a46.34,46.34,0,0,0,4.52-15.27c.61-5.9-.29-11.67-1.35-17.43C144.14,144.33,143.82,143.76,144.25,143.2Z"/><path class="cls-3" d="M144.25,143.2c.44,2.59.9,5.18,1.31,7.77a43.74,43.74,0,0,1-4.7,27.67,4.44,4.44,0,0,1-.29.44c-5.35-6.45-7.58-13.94-7.86-22.41a17.5,17.5,0,0,0-1.78,6.31,21.49,21.49,0,0,0,.39,6.29c-4.51-3.83-7.81-8.36-8.66-14.36-.45-3.18,0-6.35.11-9.52q.12-3.39.33-6.76c0-.56-.17-.78-.71-.87-1.27-.24-2.53-.53-3.8-.79-.46-.1-.54-.49-.65-.84-.76-2.18-1.61-4.34-2.26-6.56a4.39,4.39,0,0,1-.08-1c-.07-1.39-.27-2.76-.29-4.15,0-.57.39-.84.77-1.13a35,35,0,0,0,11.56-14.88,20.51,20.51,0,0,0,1.06-6.13,110.08,110.08,0,0,0,.47-11.77A29.94,29.94,0,0,0,126.66,78a16.59,16.59,0,0,0-10.26-9.26,8.62,8.62,0,0,0-7.74,1.11,2.07,2.07,0,0,1-2.59,0c-3.67-2.28-8.26-1.71-11.76,1.4A24.78,24.78,0,0,0,85.93,86.4,28.38,28.38,0,0,0,85.84,93c.35,4.33,1,8.63,1.7,12.91.63,3.63,2.5,6.7,4.39,9.75a28.36,28.36,0,0,0,6.64,7.75,1.82,1.82,0,0,1,.74,1,35.3,35.3,0,0,1-.2,4.24,4.26,4.26,0,0,0-.16,1c-.53,2.16-1.24,4.26-1.88,6.37a1,1,0,0,1-.53.72c-.9.18-1.8.38-2.71.54-.56.09-.78.31-.75.93a104.21,104.21,0,0,1-.18,11.59,30.87,30.87,0,0,1-2.45,11.13c-2.3,4.91-6.25,7.77-11.6,9.2,1.32-3.38,2.58-6.59,3.84-9.84-8.33.2-14,9.72-7.42,19.14a9,9,0,0,1-9.3-7.84c-.43-3.83.41-7.49,1.4-11.11,1.62-6,3.38-11.88,5.08-17.81.06-.23.09-.47.13-.7,1-3,1.68-6,2.41-9.07a177.87,177.87,0,0,0,3.71-21.15c.54-4.85.8-9.74,1.08-14.61.37-6.41.74-12.82,2.54-19,3.17-11,10.31-18.37,20.67-22.85.38-.16.74-.34,1.11-.51.09,0,.17-.1.28-.16a19.09,19.09,0,0,1-3-8.32c-.38-4.42,1.48-7.47,6.49-7.59a15.24,15.24,0,0,1,3.75.41,17.86,17.86,0,0,1,7,3.19,7.82,7.82,0,0,1,1.53,1.51,3.52,3.52,0,0,1,.1,4.61A13.41,13.41,0,0,1,116,52a37.35,37.35,0,0,1-6,2.82,34.84,34.84,0,0,1,6.07,1.7c8.32,3.45,13.81,9.29,16,18.23.94,3.9,2.18,7.74,2.86,11.71.87,5.08,1.47,10.19,2,15.32.4,4.09.23,8.2.56,12.3a70,70,0,0,0,2.53,12.6c1.44,5.37,3,10.71,4.12,16.14A1.76,1.76,0,0,0,144.25,143.2Z"/><path class="cls-4" d="M116,129.68l2.61,7.29c-1.42,2.44-2.46,5.07-3.76,7.72-1.08-1-2.1-2-3.11-3s-2.32-2.21-3.43-3.37c-.41-.42-.63-.4-1,0-1.94,1.92-3.92,3.8-5.85,5.73-.53.52-.75.69-1.16-.15-1.17-2.42-2.46-4.78-3.71-7.17l2.16-7.05c.54-.13.78.32,1.08.61a42.94,42.94,0,0,0,7,5.3,1.33,1.33,0,0,0,1.75-.09c2.24-1.74,4.43-3.52,6.59-5.36C115.37,129.94,115.58,129.63,116,129.68Z"/><path class="cls-5" d="M99.09,124.29c-5.2-4-8.49-9.47-11.07-15.39-1-2.27-1.07-4.78-1.46-7.2A87.75,87.75,0,0,1,85.4,90.39a23.27,23.27,0,0,1,3.93-13.77,22.73,22.73,0,0,1,5.61-6.2A9.83,9.83,0,0,1,106.78,70c.37.23.62.41,1.07.08,3.92-2.86,7.93-2.49,11.9-.16A18.62,18.62,0,0,1,128,80.78,33.1,33.1,0,0,1,129.42,90a113.5,113.5,0,0,1-.82,16.38,7.07,7.07,0,0,1-.51,1.66,34.93,34.93,0,0,1-12.16,15.77c-.19.14-.43.22-.42.52a11.67,11.67,0,0,1-6.77,3.12,12.29,12.29,0,0,1-8.69-2.09A2.23,2.23,0,0,1,99.09,124.29Z"/><path class="cls-6" d="M99.09,124.29a12.86,12.86,0,0,0,8.71,2.9,12,12,0,0,0,6.2-2.09,3.23,3.23,0,0,1,1.51-.81,28.52,28.52,0,0,1,.37,4.32,5.25,5.25,0,0,1-2.59,1.15,23.89,23.89,0,0,1-13.15-.1c-.52-.15-1.09-.25-1.32-.86Z"/><path class="cls-5" d="M98.82,128.8a16.54,16.54,0,0,0,6.13,1.43,22.21,22.21,0,0,0,10.53-1.58,1.33,1.33,0,0,1,.4,0l.1,1.07c-2.43,2.26-5,4.3-7.66,6.32a1,1,0,0,1-1.35,0,47.15,47.15,0,0,1-8.27-6.34A1.43,1.43,0,0,1,98.82,128.8Z"/></svg>