<svg id="Layer_1" data-name="Layer 1" xmlns="http://www.w3.org/2000/svg" viewBox="0 0 214.55 214.55"><defs><style>.cls-1{fill:#4681c2;}.cls-2{fill:#f2bdd7;}.cls-3{fill:#dda581;}.cls-4{fill:#eeda9c;}.cls-5{fill:#bc8662;}.cls-6{fill:#d28abb;}</style></defs><path class="cls-1" d="M62,193a80.34,80.34,0,0,1-10.74-6.6,96.1,96.1,0,0,1-32.31-39.65,96.64,96.64,0,0,1-8.06-44.18A94.37,94.37,0,0,1,28.68,51.78Q49.82,22.45,85,13.85a92.59,92.59,0,0,1,27.35-2.45,94.56,94.56,0,0,1,55.43,21.23,95.26,95.26,0,0,1,33.72,54.25A93.29,93.29,0,0,1,203.67,113a95,95,0,0,1-16.52,49,96.37,96.37,0,0,1-33.74,30.62,12.54,12.54,0,0,1-1.24.54,1.17,1.17,0,0,1-.39-1c0-6.51-.07-13,0-19.53a10.31,10.31,0,0,1,.11-2.66c.15-.38.49-.47.83-.56a3.89,3.89,0,0,1,.83-.14c3-.24,4.08-1.75,3.89-4.85a19.61,19.61,0,0,0-1.78-6.9,29.73,29.73,0,0,0-9.87-12.09,17.06,17.06,0,0,0-5.43-2.16q-10.48-2.19-21-4.49c-2.3-.5-3.11-1.51-3.21-3.87-.07-1.75-.19-3.49-.38-5.23,0-1.44-.36-2.87-.21-4.31a1.34,1.34,0,0,1,.56-.86,50,50,0,0,0,4.93-4.26,1.24,1.24,0,0,1,.74-.36c1,.15,2,.55,3,.76,2.27.49,3.44-.37,3.66-2.65a27.89,27.89,0,0,1,.49-3.75,11.93,11.93,0,0,1,.79-2.5c.19-.4.31-1,.84-1s.49.67.59,1.1a12,12,0,0,0,4,6.6,4.49,4.49,0,0,0-.54-1.55c-1.07-2.49-1.65-5-.41-7.62a10.9,10.9,0,0,1,4.44-4.36c1.56-1,3.26-1.66,4.8-2.63a8.14,8.14,0,0,0,2-1.59,2.72,2.72,0,0,0,.25-3.32,6.36,6.36,0,0,0-1.61-1.78c-1.6-1.2-3.3-2.27-4.94-3.4a17,17,0,0,1-2.94-2.55,5.76,5.76,0,0,1-1-7.08,25.63,25.63,0,0,1,2-3c1.68-2.33,1.42-4.13-.84-5.92a11.88,11.88,0,0,0-4.08-1.89l-.71-.2c-1.64-.48-1.69-.64-.61-1.94a19.08,19.08,0,0,0,2.9-4.11,7.07,7.07,0,0,0-2.26-9.18,23.53,23.53,0,0,0-11-4.27,39.37,39.37,0,0,0-20.14,2.48,34.12,34.12,0,0,0-13.11,8.35,19.41,19.41,0,0,0-5.73,13.94,38.53,38.53,0,0,1-.29,5.78,20.7,20.7,0,0,1-4,9.27,43.83,43.83,0,0,1-5.17,5.81,15.37,15.37,0,0,0-1.79,2.07c-1.38,2-1,3.7,1,5a34.76,34.76,0,0,0,4.7,2.11,11.78,11.78,0,0,1,2.35,1.38,2.73,2.73,0,0,1,.86,3.64,9.07,9.07,0,0,1-2.48,2.82c-.26.23-.6.38-.73.77.22.27.51.14.76.08,2.88-.66,5.58-1.65,7.67-3.88.73-.77,1.13-.67,1.38.39a6.37,6.37,0,0,1-.46,4.41c-.26.53-.61,1-.87,1.56-.46,1-.23,1.37.83,1.45a14.38,14.38,0,0,0,4.47-.63,9.26,9.26,0,0,1,2.56-.53c.52.13.77.57,1,1a27.83,27.83,0,0,0,5,5.22c.37.31.79.6.74,1.18a40,40,0,0,1-.24,4.38c-.14,1.92-.2,3.85-.46,5.76a3.11,3.11,0,0,1-2.71,2.69c-2.78.61-5.55,1.23-8.33,1.81-4.87,1-9.73,2.08-14.6,3.13a12.61,12.61,0,0,0-2.67.93c-7.47,3.84-12.33,9.68-13.87,18.08A20.59,20.59,0,0,0,56,167a3.66,3.66,0,0,0,2.92,3.64,9.15,9.15,0,0,0,2.08.29c.45,0,.94,0,1.21.46a10.23,10.23,0,0,1,.13,2.87c.11,4.58,0,9.16,0,13.74,0,1.22,0,2.45,0,3.67A1.71,1.71,0,0,1,62,193Z"/><path class="cls-2" d="M137,199.61a70.06,70.06,0,0,1-11.32,3c-2.53.47-5.07.89-7.63,1.21-2,.25-4,.38-6,.46s-3.93,0-5.89,0a92.72,92.72,0,0,1-14.69-1.21,90.82,90.82,0,0,1-13.91-3.42,5,5,0,0,1-.48-.21,1.12,1.12,0,0,1-.41-1c0-2-.27-3.91-.25-5.87,0-2.31,0-4.62-.11-6.93a116.74,116.74,0,0,1,.37-12.68,1.6,1.6,0,0,1,.18-.6.79.79,0,0,1,.3-.27,17.4,17.4,0,0,1,4.37-.5,79.84,79.84,0,0,1,12.08-.13c7.79.64,15.53,1.73,23.31,2.5,2.75.28,5.51.59,8.27.7a40,40,0,0,0,10.34-1c.66-.15,1.37-.41,2,.09a11.52,11.52,0,0,1,.47,3.73c.06,5.21-.14,10.43-.39,15.64a41.48,41.48,0,0,1-.19,5.35A2,2,0,0,1,137,199.61Z"/><path class="cls-3" d="M137,199.61c.19-5.2.43-10.4.57-15.61a95.14,95.14,0,0,0-.19-10.27.29.29,0,0,1,.12-.34,15.51,15.51,0,0,1,3.82-.59c3.3-.27,6.61-.5,9.92-.56a1.11,1.11,0,0,1,.88.23q0,9.72,0,19.44c0,.42,0,.84,0,1.26a32,32,0,0,1-5.12,2.6A72.48,72.48,0,0,1,137,199.61Z"/><path class="cls-3" d="M77,172.27c-.13,4.16-.44,8.32-.36,12.48.1,4.89.06,9.8.42,14.68A80.61,80.61,0,0,1,62,193c0-5.84,0-11.68,0-17.52,0-.45,0-.91,0-1.36a1.37,1.37,0,0,1,1.11-.5c3.85-.21,7.62-1,11.44-1.43A3.85,3.85,0,0,1,77,172.27Z"/><path class="cls-3" d="M99,125.46a44,44,0,0,1-4.33-4.19c-.73-.93-1.47-1.85-2.2-2.77a7.25,7.25,0,0,1-2.13-2.81,46.27,46.27,0,0,1-4.88-11.14c-.14-.51-.58-.88-.64-1.42,0-1.48-.56-2.87-.71-4.33A12.94,12.94,0,0,1,84,97c.17-.57.69-.76,1.13-1a21.81,21.81,0,0,0,5.09-4A8.69,8.69,0,0,0,92,83.7a24.9,24.9,0,0,1-.81-4,9.58,9.58,0,0,1,3.48-8.31,21.82,21.82,0,0,1,17.15-5.72c4.46.39,7.8,2.62,9.32,7a2,2,0,0,0,1.76,1.48,13.15,13.15,0,0,1,4.89,1.55c1.54.92,2.92,2,2.75,4.11a4.5,4.5,0,0,1-.74,2.16,18.93,18.93,0,0,0-1.67,2.67,6.74,6.74,0,0,0,.79,7.59,32.5,32.5,0,0,0,2.65,2.85c.26.26.62.47.64.92-.33,2.36-.93,4.68-1.2,7a58.34,58.34,0,0,1-4.88,11.48,49.59,49.59,0,0,1-3.57,4.94,1.45,1.45,0,0,1-.78.5,66.33,66.33,0,0,1-5.89,5.09,6.93,6.93,0,0,1-3.37,2.4,12.79,12.79,0,0,1-13-1.41A1,1,0,0,1,99,125.46Z"/><path class="cls-2" d="M146,145.24a26.78,26.78,0,0,1,7,7,24.56,24.56,0,0,1,4.69,11.66,7.73,7.73,0,0,1-.19,2.92c-.46,1.74-1.79,2.4-3.42,2.65-.66.1-1.32.16-2,.25a6.41,6.41,0,0,1-3.17.47c-3.84.11-7.66.46-11.47.92a52.55,52.55,0,0,1-11.15,1.42,87.9,87.9,0,0,1-9-.69c-7.77-.83-15.53-1.9-23.32-2.55a73.15,73.15,0,0,0-11.56.06c-1.75.13-3.5.25-5.24.42-3.39.33-6.75.86-10.12,1.33-1.18.16-2.37.24-3.55.38a2.06,2.06,0,0,1-1.53-.23A28.81,28.81,0,0,1,59.1,171a4,4,0,0,1-3.43-4.15c0-9.15,4.06-16.12,11.6-21.14a10.32,10.32,0,0,1,2.65-1.49,3,3,0,0,1,1.53.18c8,2.23,16.14,4.28,24.33,6a67.75,67.75,0,0,0,16.32,1.32,74.46,74.46,0,0,0,10.52-1.4c7.4-1.33,14.69-3.12,22-5A2.44,2.44,0,0,1,146,145.24Z"/><path class="cls-4" d="M85,103.18a1.64,1.64,0,0,1,.75,1.06,48.11,48.11,0,0,0,5,11.55c.54.93,1.17,1.8,1.76,2.71-1.67.4-3.33.82-5,1.2a6.61,6.61,0,0,1-2.62.09c-.84-.14-1.13-.68-.78-1.44s.85-1.53,1.22-2.33a5.61,5.61,0,0,0,0-4.74c-2.25,2.74-5.29,3.89-8.55,4.62A3.84,3.84,0,0,1,76,116a.42.42,0,0,1-.45-.19c-.12-.24,0-.41.19-.55l1.61-1.35a6.88,6.88,0,0,0,1.61-1.79,2.55,2.55,0,0,0-.72-3.69,15.6,15.6,0,0,0-3.64-1.85,17.59,17.59,0,0,1-3.76-1.87c-1.79-1.33-2.07-3-.84-4.84a17.81,17.81,0,0,1,2.56-2.93,32.44,32.44,0,0,0,7.27-9.83,19.43,19.43,0,0,0,1.55-8,26,26,0,0,1,.93-8.42c1.85-5.43,5.57-9.34,10.25-12.42a42,42,0,0,1,17.91-6.52A32.92,32.92,0,0,1,125.79,53a20.23,20.23,0,0,1,6.14,3.16,7.38,7.38,0,0,1,2.23,9.4,12.65,12.65,0,0,1-1.72,2.76c-.69.84-1.42,1.63-2.19,2.5,1.39.45,2.78.76,4.08,1.33a9.24,9.24,0,0,1,3,1.89A3.69,3.69,0,0,1,138,79c-.54.9-1.2,1.73-1.79,2.6-2.23,3.3-1.89,6.06,1.05,8.77a59.69,59.69,0,0,0,5.9,4.22,12.29,12.29,0,0,1,2.39,2,3.18,3.18,0,0,1-.45,5,18.8,18.8,0,0,1-3.48,2.14,22.2,22.2,0,0,0-5.53,3.6,7.23,7.23,0,0,0-1.9,7.35c.36,1.43,1.11,2.7,1.61,4.13-2-.3-3.69-3-5.18-8a12.83,12.83,0,0,0-1.61,5c-.12.83-.15,1.67-.21,2.51a2.85,2.85,0,0,1-3.69,2.79c-1.13-.25-2.21-.66-3.32-1a41,41,0,0,0,8.45-15.66,1.77,1.77,0,0,1,.65-1.15,8,8,0,0,0,2.7-2.84,2.16,2.16,0,0,0-.14-2.26c-.43-.7-1.25-1.16-1.33-2.08a33.16,33.16,0,0,1-3.49-3.62c-2.2-2.68-2.06-6.22,0-9.16a15.83,15.83,0,0,0,1.27-1.91c1-2,.18-4.06-2.11-5.3A17.58,17.58,0,0,0,122,74.33a.94.94,0,0,1-.9-.79c-1.5-5.1-5.45-7.49-10.51-7.67A22.39,22.39,0,0,0,98,69.18C95,71,92.44,73.34,91.62,77A11.08,11.08,0,0,0,92,82.58c.79,2.74,1,5.41-.48,8A13.47,13.47,0,0,1,87.15,95c-1,.69-2,1.35-3.07,2-.26.68-1,.86-1.48,1.26a1.15,1.15,0,0,0-.44,1.46,5.4,5.4,0,0,0,2.07,2.83C84.49,102.75,84.8,102.87,85,103.18Z"/><path class="cls-3" d="M146,145.24c-4.54,1.24-9.13,2.34-13.72,3.4-5.07,1.16-10.17,2.2-15.32,2.92a59.62,59.62,0,0,1-12.46.31c-7.4-.51-14.52-2.42-21.68-4.12-3.94-.94-7.84-2-11.75-3.11-.4-.11-.79-.27-1.18-.41,1.71-1,3.69-1.25,5.59-1.66,6.8-1.49,13.61-2.94,20.41-4.42a2.66,2.66,0,0,0,2.3-2.71c.13-1.78.29-3.56.44-5.34a2.91,2.91,0,0,1,2.13.26,19.47,19.47,0,0,0,5.8.87,23.17,23.17,0,0,0,8.35-1.41c.38-.14.76-.4,1.19-.14.32,1.48.21,3,.4,4.49.08.55,0,1.12.13,1.67a2.64,2.64,0,0,0,2.31,2.49L140.68,143A12.78,12.78,0,0,1,146,145.24Z"/><path class="cls-5" d="M116.13,129.68a23.06,23.06,0,0,1-9.47,1.89,26.11,26.11,0,0,1-8-1.47,36.13,36.13,0,0,1,.38-4.64c1.23.58,2.27,1.49,3.57,2,4.89,1.81,9.25.74,13.27-2.34C116,126.62,116.05,128.15,116.13,129.68Z"/><path class="cls-5" d="M62,171.28C67,171,72,169.94,77,169.5h.21a2.43,2.43,0,0,1-.1,2.72.28.28,0,0,0-.13,0c-2.58.35-5.17.71-7.75,1-2.38.3-4.77.56-7.15.84Z"/><path class="cls-5" d="M137.43,170.8a134,134,0,0,1,14.71-1.05c0,.9,0,1.81,0,2.72-2.64.14-5.29.24-7.93.43-2.25.16-4.5.41-6.75.61A2.36,2.36,0,0,1,137.43,170.8Z"/><path class="cls-6" d="M137.43,170.8c0,.91,0,1.81,0,2.71l-.06.22c-1.93.06-3.75.75-5.66.93a41.43,41.43,0,0,1-8.26.19c-1.87-.19-3.75-.31-5.62-.49-2.36-.24-4.71-.51-7.07-.77-2.14-.24-4.29-.46-6.44-.71-2.63-.29-5.25-.62-7.88-.9-1.46-.15-2.92-.31-4.38-.34-3.43-.06-6.86-.06-10.29.2l-4.68.39c0-.91.06-1.82.1-2.72a12.46,12.46,0,0,1,3.21-.37,101.81,101.81,0,0,1,13.64-.2c3.4.16,6.78.79,10.17,1.17,2.84.32,5.68.58,8.52.88,3,.33,6.09.75,9.14,1a47.84,47.84,0,0,0,9.19-.09C133.2,171.66,135.29,171.1,137.43,170.8Z"/><path class="cls-5" d="M132.1,96a20.73,20.73,0,0,1,1.74,2.22,1.82,1.82,0,0,1,.12,2c-.67,1.39-1.46,2.63-3.09,3a1,1,0,0,1-.17-1.07,29.87,29.87,0,0,0,1-5.7A.4.4,0,0,1,132.1,96Z"/><path class="cls-5" d="M85,103.18c-1.9-.65-2.73-2.16-3.25-3.94a.73.73,0,0,1,.38-.88c.66-.46,1.34-.89,2-1.33.28,1.41.56,2.83.85,4.24.09.45.21.88.34,1.31S85.32,103.13,85,103.18Z"/></svg>