<svg id="Layer_1" data-name="Layer 1" xmlns="http://www.w3.org/2000/svg" viewBox="0 0 214.55 214.55"><defs><style>.cls-1{fill:#056095;}.cls-2{fill:#c56e29;}.cls-3{fill:#dda581;}.cls-4{fill:#eeda9c;}.cls-5{fill:#bc8662;}.cls-6{fill:#efda9b;}.cls-7{fill:#ebb320;}.cls-8{fill:#076095;}</style></defs><path class="cls-1" d="M62.1,191.23a81.3,81.3,0,0,1-13.34-8.47c-19-14.7-31.2-33.75-36.2-57.26A96.83,96.83,0,0,1,67.66,17.29,95.56,95.56,0,0,1,100.84,9a96.78,96.78,0,0,1,94.38,55.85,91.85,91.85,0,0,1,8.5,31.61q3.71,46.5-29.59,79.25A91.4,91.4,0,0,1,153,191.06c-.12.07-.25.11-.38.17-.59-.49-.39-1.17-.39-1.78q0-17.16,0-34.33a14.93,14.93,0,0,0-.14-2.31,13.64,13.64,0,0,0-10.59-11.31c-3.36-.78-6.76-1.4-10.1-2.26a1.35,1.35,0,0,1-.66-.9,67.64,67.64,0,0,0-4.28-9.47,2.55,2.55,0,0,1-.46-1.37c0-.17.13-.38,0-.51-.73-1-.39-2.18-.61-3.27a7.6,7.6,0,0,1,1.07-1.93,23.23,23.23,0,0,0,2.85-6.66,2.75,2.75,0,0,1,.11-.41c.11-.31.25-.66.62-.6s.33.41.39.68a1.49,1.49,0,0,1,0,.21c0,4.53.17,9.07-.13,13.6,0,.09-.08.13-.13.22a142.56,142.56,0,0,0,2.3-28.26c1.15-1.55,1.72-3.42,2.66-5.09a8.42,8.42,0,0,0,.72-7,9.23,9.23,0,0,0-2.06-2.74,2.91,2.91,0,0,1,.23-1.54,23,23,0,0,0,1-7.81,29.34,29.34,0,0,0-3.93-13.55,11.57,11.57,0,0,0-2.86-3.21,7.15,7.15,0,0,0-6.86-1.28c-1.76.53-1.75.51-2.73-1A15.55,15.55,0,0,0,105.46,50a20.89,20.89,0,0,0-9,2,25.61,25.61,0,0,0-8.62,6.31A16.59,16.59,0,0,0,84,66.16a47.71,47.71,0,0,0-.34,16.47,6,6,0,0,1,.17,2.7,1.35,1.35,0,0,1-.67.48c-2.08.82-2.78,2.54-3,4.57a8.57,8.57,0,0,0,1.48,5.68,3.42,3.42,0,0,1,.49,1,5.58,5.58,0,0,0,2.95,3.77,1.09,1.09,0,0,1,.4.34,5.61,5.61,0,0,1,.34,1A253.49,253.49,0,0,0,88.66,128c-.33-2.26-.48-4.54-.62-6.81-.22-3.61-.32-7.23-.47-10.84a4.23,4.23,0,0,1,.11-1.46c.4-.7.7-.2.9.13.43.72.78,1.49,1.18,2.23A38.15,38.15,0,0,0,96.83,121c.56.54,1.18,1,1.76,1.5a1.82,1.82,0,0,1,.79,1.09c.21,1.46-.26,2.9-.18,4.37a46,46,0,0,0-.39,4.83c-.12,2.42-.84,3.34-3.23,3.83-3.89.8-7.76,1.77-11.67,2.5-3.54.77-7.08,1.56-10.63,2.28a13.68,13.68,0,0,0-10.8,13.15q0,17.41,0,34.85C62.46,190.05,62.64,190.72,62.1,191.23Z"/><path class="cls-2" d="M131.31,139c4.57,1.06,9.38,1.31,13.63,3.43a13,13,0,0,1,7.6,12.2c.09,11.81,0,23.63,0,35.44,0,.39,0,.77,0,1.16a78.44,78.44,0,0,1-12.16,5.46,97.08,97.08,0,0,1-78-5.23,2.54,2.54,0,0,1-.34-.23q0-18.19,0-36.39a13.18,13.18,0,0,1,1.94-7.12,13.72,13.72,0,0,1,9.22-6.61c3.54-.73,7.07-1.49,10.61-2.23.52.13.79.56,1.1.93a27.86,27.86,0,0,0,25.81,10.58,1.84,1.84,0,0,1,1,0,1.25,1.25,0,0,1,.42.93,44.07,44.07,0,0,0,2.16,9.35,22.72,22.72,0,0,1,1.18,6.63,16.88,16.88,0,0,1-7,12.66c-3.68,2.27-6.63.78-8.76-2.31-.16-.23-.33-.51-.11-.78s.52-.17.78-.07a9.12,9.12,0,0,0,3.2.59,5.63,5.63,0,0,0,5.39-3.24,6,6,0,0,0-.35-6.43c-1.76-2.66-7.06-4.7-10.49-1.83a10.73,10.73,0,0,0-3.34,5.52c-1.82,6.58.49,11.82,5.39,16.13a19.66,19.66,0,0,0,11.55,5,18.39,18.39,0,0,0,10.83-2.59,26.71,26.71,0,0,0,9-8,26.08,26.08,0,0,0,4.28-12,52.16,52.16,0,0,0-1.18-17q-1.41-6.57-3.47-12.95C131.22,139.66,130.94,139.32,131.31,139Z"/><path class="cls-3" d="M85.53,102l-.12-.81a20.33,20.33,0,0,1-.53-4.59c-.14-1.92-.33-3.84-.37-5.77.22-1.39,0-2.78.09-4.19a24.25,24.25,0,0,1,6.82-15.51,25.75,25.75,0,0,1,6.16-4.75,20.65,20.65,0,0,1,8-2.26,29.63,29.63,0,0,1,9.35.3,1.47,1.47,0,0,0,1.87-.93,11.33,11.33,0,0,1,1.07-1.81c.16-.22.34-.54.66-.39s.23.49.17.77a16,16,0,0,1-.52,2,1.27,1.27,0,0,0,.69,1.8,25.47,25.47,0,0,1,8.53,7.89A26.3,26.3,0,0,1,132,86.9c.08,1.09.22,2.17.25,3.26-.46,1.65-.19,3.34-.35,5-.19,2-.47,3.95-.82,5.92a2.14,2.14,0,0,1,0,.62,48.33,48.33,0,0,1-4,9.84,39.51,39.51,0,0,1-6.64,8.42,37.6,37.6,0,0,1-4.15,3.41,16.07,16.07,0,0,1-6.82,3.14,12.61,12.61,0,0,1-9.64-2.42,1.44,1.44,0,0,1-.59-.72c-4.83-3.61-8-8.54-10.61-13.82a2.22,2.22,0,0,0-.59-1,15.9,15.9,0,0,1-2.16-5.72C85.74,102.59,85.81,102.25,85.53,102Z"/><path class="cls-4" d="M131.31,139a117,117,0,0,1,4.44,17.34c1.13,6.92,1.45,13.84-1.16,20.51a24.35,24.35,0,0,1-18.36,15.68c-5.72,1.26-10.84-.65-15.37-4.16-3.45-2.66-6-6-6.68-10.41a13.73,13.73,0,0,1,3.09-11.54c2.25-2.64,6.23-2.95,9.64-.84a6.56,6.56,0,0,1,2.68,8.36c-1.32,3.24-5.31,4.72-8.82,3.3-.31-.13-.57-.43-1-.33,2.2,4,5.94,5.3,9.63,2.06,4.68-4.13,6.88-9.24,5.38-15.58-.75-3.15-1.91-6.19-2.49-9.37-.21-1.18-.38-2.36-.57-3.54a9.71,9.71,0,0,1-.18-4.45,32.5,32.5,0,0,1,5-14.18c.63-1,1.2-2,1.92-2.86a2.46,2.46,0,0,1,1.08-1,34.75,34.75,0,0,0,6-.65.65.65,0,0,1,.5.11A82.29,82.29,0,0,1,131.31,139Z"/><path class="cls-4" d="M132.06,90a9.63,9.63,0,0,1-.39-3,26.23,26.23,0,0,0-6.15-15.13,25.66,25.66,0,0,0-7.65-6.18c-.4-.21-.34-.42-.25-.75a21.14,21.14,0,0,0,.72-3.59c-.48.84-1,1.66-1.42,2.52a1.52,1.52,0,0,1-2,.88,26.29,26.29,0,0,0-14.32.72c-8.21,2.94-13.13,9-15.19,17.36a17.52,17.52,0,0,0-.52,7.07.65.65,0,0,1-.18.68c-.09-.05-.21-.09-.24-.18a12.39,12.39,0,0,1-.82-5.08A78.8,78.8,0,0,1,82.77,76a51.84,51.84,0,0,1,.71-9.14,18.65,18.65,0,0,1,7.71-12.15,23.65,23.65,0,0,1,13.33-5c6.44-.26,11.33,2.5,14.73,7.92.43.68.73.88,1.54.58,3.63-1.36,7-.34,9.55,2.9a24.67,24.67,0,0,1,4.44,10.26,25.53,25.53,0,0,1-.6,13.54c-.08.27-.14.54-.2.81A7,7,0,0,1,132.06,90Z"/><path class="cls-3" d="M116.85,131.83a55.18,55.18,0,0,0-3.42,7.2,32.08,32.08,0,0,0-1.68,11.45,23.87,23.87,0,0,1-9.3.1,29.16,29.16,0,0,1-18.56-11.7l11.92-2.59c1.86-.41,2.52-1.2,2.65-3.11.12-1.71.28-3.42.42-5.13a1.43,1.43,0,0,1,1.13.06,23.61,23.61,0,0,0,15.48-.38c.33-.12.65-.31,1-.1A7.71,7.71,0,0,1,116.85,131.83Z"/><path class="cls-4" d="M116.21,123.11a40.14,40.14,0,0,0,8.65-8.71,30.43,30.43,0,0,0,4-7.48,47.31,47.31,0,0,0,1.9-5.68,2.5,2.5,0,0,1,1.93-.84,89.58,89.58,0,0,1-.12,11.7,126.25,126.25,0,0,1-2,16.2,2.07,2.07,0,0,1-.43,1v-15l-.27-.07a25.46,25.46,0,0,1-4.43,9.74.75.75,0,0,1-.69.16,11.55,11.55,0,0,0-5.16.8,16.71,16.71,0,0,1-3.27-1.58A.49.49,0,0,1,116.21,123.11Z"/><path class="cls-5" d="M116.42,127.64a23.07,23.07,0,0,1-17.54.41c.1-1.55.19-3.11.28-4.66a17.69,17.69,0,0,0,4.22,2.32,12.54,12.54,0,0,0,11.74-2,5.89,5.89,0,0,1,1.09-.62v.07C116.64,124.65,117.06,126.12,116.42,127.64Z"/><path class="cls-5" d="M83.69,85.36c.35,1.76.71,3.51,1.06,5.26.21,2.82.43,5.64.62,8.45,0,.71.49,1.42,0,2.14a4.78,4.78,0,0,1-3.36-3.46,10.18,10.18,0,0,0-.92-2,8.34,8.34,0,0,1-.51-8.12A3.91,3.91,0,0,1,83.69,85.36Z"/><path class="cls-5" d="M132.74,100.4a4.84,4.84,0,0,1-1.93.84c-.16-1.2.34-2.31.46-3.48a51.34,51.34,0,0,0,.37-5.94,3.25,3.25,0,0,1,.42-1.81L134,85.76a6.13,6.13,0,0,1,2.64,6.08,9.13,9.13,0,0,1-1.7,4.56,2.73,2.73,0,0,0-.38,1A6.54,6.54,0,0,1,132.74,100.4Z"/><path class="cls-6" d="M85.53,102a1,1,0,0,1,.09-.3c.08-.12.14-.07.16.06A46.65,46.65,0,0,0,88,108.6c0,6.67.55,13.32.75,20A172.08,172.08,0,0,1,85.53,102Z"/><path class="cls-7" d="M119.48,124.8a8.75,8.75,0,0,1,6-.8c.24.15.65.42.5.58-1,1,1,1.92.11,2.91a19.34,19.34,0,0,1-6.72.78c-.62.19-1-.2-.81-.67a6.85,6.85,0,0,0,.47-2.31A.52.52,0,0,1,119.48,124.8Z"/><path class="cls-8" d="M119.48,124.8a.8.8,0,0,0-.24,1,1.27,1.27,0,0,1-.28,1.46c-.66.69-.13.85.39,1.05l-2.5,3.56c-.14-1.4-.29-2.79-.43-4.19s-.13-3-.2-4.46A21.05,21.05,0,0,1,119.48,124.8Z"/></svg>