<svg id="Layer_1" data-name="Layer 1" xmlns="http://www.w3.org/2000/svg" viewBox="0 0 300 300"><defs><style>.cls-1{fill:#056095;}.cls-2{fill:#c56e29;}.cls-3{fill:#dda581;}.cls-4{fill:#eeda9c;}.cls-5{fill:#bc8662;}.cls-6{fill:#efda9b;}.cls-7{fill:#ebb320;}.cls-8{fill:#076095;}</style></defs><path class="cls-1" d="M104.82,237.54a81.21,81.21,0,0,1-13.33-8.47c-19-14.7-31.21-33.75-36.21-57.26A96.85,96.85,0,0,1,110.39,63.59a95.76,95.76,0,0,1,33.18-8.24,96.75,96.75,0,0,1,94.37,55.85,91.64,91.64,0,0,1,8.51,31.61q3.7,46.5-29.6,79.25a91.13,91.13,0,0,1-21.12,15.31c-.12.07-.26.11-.38.17-.59-.49-.39-1.17-.4-1.78q0-17.16,0-34.33a14.93,14.93,0,0,0-.14-2.31,13.68,13.68,0,0,0-10.59-11.32c-3.37-.77-6.76-1.39-10.1-2.25a1.4,1.4,0,0,1-.67-.9,67.59,67.59,0,0,0-4.27-9.47,2.48,2.48,0,0,1-.47-1.37c0-.17.13-.38,0-.51-.73-1-.39-2.18-.6-3.27a7.31,7.31,0,0,1,1.07-1.93,22.93,22.93,0,0,0,2.84-6.66c0-.14.07-.28.12-.41.11-.31.25-.66.62-.6s.33.41.38.68a.76.76,0,0,1,0,.21c0,4.53.17,9.07-.14,13.6,0,.09-.08.13-.12.22a141.81,141.81,0,0,0,2.29-28.26c1.16-1.55,1.72-3.42,2.66-5.09a8.42,8.42,0,0,0,.73-7,9.1,9.1,0,0,0-2.07-2.74,3,3,0,0,1,.23-1.54,23,23,0,0,0,1.05-7.81,29.46,29.46,0,0,0-3.93-13.55,11.6,11.6,0,0,0-2.87-3.21,7.12,7.12,0,0,0-6.86-1.28c-1.75.53-1.74.51-2.73-1a15.54,15.54,0,0,0-13.27-7.37,20.88,20.88,0,0,0-9,2,25.65,25.65,0,0,0-8.63,6.31,16.59,16.59,0,0,0-3.85,7.87,48,48,0,0,0-.34,16.47,6,6,0,0,1,.18,2.7,1.37,1.37,0,0,1-.68.48c-2.07.82-2.77,2.54-3,4.57a8.56,8.56,0,0,0,1.47,5.68,3.22,3.22,0,0,1,.5,1,5.55,5.55,0,0,0,3,3.77,1.06,1.06,0,0,1,.39.34,4.91,4.91,0,0,1,.34,1,253.51,253.51,0,0,0,2.83,25.79c-.34-2.26-.49-4.54-.62-6.81-.22-3.61-.32-7.23-.48-10.84a4.23,4.23,0,0,1,.11-1.46c.4-.71.71-.2.9.13.43.72.79,1.49,1.19,2.23a38.11,38.11,0,0,0,7.06,9.79c.56.54,1.18,1,1.77,1.5a1.8,1.8,0,0,1,.78,1.09c.22,1.46-.25,2.9-.17,4.37-.24,1.6-.32,3.21-.4,4.83-.11,2.42-.84,3.34-3.22,3.83-3.9.8-7.76,1.77-11.67,2.5-3.54.77-7.08,1.55-10.64,2.27a13.71,13.71,0,0,0-10.8,13.15c0,11.62,0,23.24,0,34.85C105.19,236.35,105.36,237,104.82,237.54Z"/><path class="cls-2" d="M174,185.31c4.57,1.06,9.39,1.31,13.64,3.42a13,13,0,0,1,7.6,12.21c.09,11.81,0,23.63,0,35.44,0,.39,0,.77,0,1.16A79,79,0,0,1,183.18,243a97.05,97.05,0,0,1-78-5.23,3.5,3.5,0,0,1-.35-.23q0-18.19,0-36.4a13.35,13.35,0,0,1,1.94-7.11,13.75,13.75,0,0,1,9.22-6.61c3.54-.73,7.08-1.49,10.61-2.23a2.21,2.21,0,0,1,1.11.93,29.28,29.28,0,0,0,15,9.94,29.59,29.59,0,0,0,10.77.64,1.81,1.81,0,0,1,1,0,1.28,1.28,0,0,1,.43.93,42.88,42.88,0,0,0,2.16,9.35,23.05,23.05,0,0,1,1.18,6.63,16.88,16.88,0,0,1-7,12.66c-3.69,2.26-6.63.78-8.77-2.32-.15-.22-.32-.5-.1-.77s.52-.17.78-.07a9.34,9.34,0,0,0,3.19.59,5.64,5.64,0,0,0,5.4-3.24,6.06,6.06,0,0,0-.35-6.43c-1.77-2.66-7.06-4.7-10.49-1.83a10.66,10.66,0,0,0-3.34,5.52c-1.82,6.58.48,11.82,5.39,16.13a19.61,19.61,0,0,0,11.54,5,18.37,18.37,0,0,0,10.83-2.59,26.61,26.61,0,0,0,9-8,26.08,26.08,0,0,0,4.28-12,52.14,52.14,0,0,0-1.17-17c-1-4.38-2.1-8.69-3.48-12.95C173.94,186,173.67,185.63,174,185.31Z"/><path class="cls-3" d="M128.25,148.33l-.12-.81a20.32,20.32,0,0,1-.52-4.59c-.14-1.92-.34-3.84-.38-5.77.23-1.39,0-2.78.1-4.19a24.29,24.29,0,0,1,6.81-15.51,25.61,25.61,0,0,1,6.17-4.75,20.65,20.65,0,0,1,8-2.26,29.57,29.57,0,0,1,9.34.3,1.47,1.47,0,0,0,1.87-.93,11.39,11.39,0,0,1,1.08-1.81c.16-.23.34-.54.66-.39s.23.49.16.77a16,16,0,0,1-.51,2,1.27,1.27,0,0,0,.68,1.8,25.38,25.38,0,0,1,8.53,7.89,26.3,26.3,0,0,1,4.59,13.09c.08,1.09.23,2.17.25,3.26-.46,1.65-.18,3.34-.34,5-.19,2-.47,3.95-.82,5.92a1.84,1.84,0,0,1-.06.62,47.77,47.77,0,0,1-4,9.84,39.2,39.2,0,0,1-6.64,8.42,36.59,36.59,0,0,1-4.14,3.41,16.14,16.14,0,0,1-6.83,3.13,12.58,12.58,0,0,1-9.64-2.41,1.55,1.55,0,0,1-.59-.72c-4.82-3.61-7.94-8.54-10.6-13.82a2.18,2.18,0,0,0-.6-1,15.88,15.88,0,0,1-2.15-5.72C128.46,148.9,128.53,148.56,128.25,148.33Z"/><path class="cls-4" d="M174,185.31a115.14,115.14,0,0,1,4.44,17.34c1.13,6.92,1.46,13.84-1.15,20.51A24.4,24.4,0,0,1,159,238.84c-5.72,1.26-10.84-.65-15.38-4.16-3.44-2.66-6-6-6.67-10.41A13.73,13.73,0,0,1,140,212.73c2.26-2.64,6.23-2.95,9.64-.84a6.56,6.56,0,0,1,2.69,8.36c-1.33,3.24-5.31,4.72-8.83,3.3-.31-.13-.56-.43-1-.33,2.19,4,5.94,5.3,9.62,2.05,4.68-4.12,6.88-9.23,5.38-15.57-.75-3.15-1.9-6.19-2.48-9.38-.22-1.17-.38-2.35-.57-3.53a9.57,9.57,0,0,1-.18-4.45,32.48,32.48,0,0,1,5-14.18c.63-1,1.2-2,1.92-2.86a2.57,2.57,0,0,1,1.08-1,33.71,33.71,0,0,0,6-.66.7.7,0,0,1,.5.12A81.15,81.15,0,0,1,174,185.31Z"/><path class="cls-4" d="M174.78,136.32a9.63,9.63,0,0,1-.39-3,26.16,26.16,0,0,0-6.15-15.13A25.62,25.62,0,0,0,160.6,112c-.41-.21-.34-.42-.25-.75a21.12,21.12,0,0,0,.71-3.59c-.47.84-1,1.65-1.41,2.52a1.52,1.52,0,0,1-2,.88,26.29,26.29,0,0,0-14.32.72c-8.21,2.94-13.13,9-15.2,17.35a17.58,17.58,0,0,0-.51,7.08.69.69,0,0,1-.18.68c-.09-.05-.21-.09-.24-.18a12.4,12.4,0,0,1-.83-5.08,78.8,78.8,0,0,1-.92-9.33,51.85,51.85,0,0,1,.72-9.14,18.72,18.72,0,0,1,7.7-12.16,23.76,23.76,0,0,1,13.33-5c6.45-.27,11.34,2.5,14.74,7.92.43.68.73.88,1.53.58,3.64-1.36,7-.34,9.55,2.9a24.69,24.69,0,0,1,4.45,10.26,25.53,25.53,0,0,1-.61,13.54c-.08.27-.13.54-.2.81A7,7,0,0,1,174.78,136.32Z"/><path class="cls-3" d="M159.57,178.14a55.18,55.18,0,0,0-3.42,7.2,31.86,31.86,0,0,0-1.67,11.45,23.87,23.87,0,0,1-9.3.1,29.18,29.18,0,0,1-18.57-11.7l11.92-2.59c1.86-.41,2.53-1.2,2.66-3.11.11-1.71.28-3.42.42-5.14a1.41,1.41,0,0,1,1.12.07,23.64,23.64,0,0,0,15.49-.38c.32-.12.65-.31,1-.1A7.71,7.71,0,0,1,159.57,178.14Z"/><path class="cls-4" d="M158.93,169.42a39.92,39.92,0,0,0,8.65-8.71,30.43,30.43,0,0,0,4-7.48,47.36,47.36,0,0,0,1.91-5.68,2.49,2.49,0,0,1,1.93-.84,87.86,87.86,0,0,1-.13,11.7,122.8,122.8,0,0,1-2,16.2,1.83,1.83,0,0,1-.43,1V160.64l-.27-.07a25.29,25.29,0,0,1-4.42,9.74.76.76,0,0,1-.69.16,11.37,11.37,0,0,0-5.16.8,16.44,16.44,0,0,1-3.27-1.58A.5.5,0,0,1,158.93,169.42Z"/><path class="cls-5" d="M159.15,174a23,23,0,0,1-17.54.4l.27-4.65a18,18,0,0,0,4.23,2.32,12.54,12.54,0,0,0,11.74-2,5.5,5.5,0,0,1,1.08-.62v.07C159.36,171,159.78,172.43,159.15,174Z"/><path class="cls-5" d="M126.41,131.67c.36,1.76.71,3.51,1.07,5.26.21,2.82.42,5.63.61,8.45,0,.71.5,1.42,0,2.14a4.8,4.8,0,0,1-3.35-3.46,10.81,10.81,0,0,0-.92-2,8.31,8.31,0,0,1-.51-8.12A3.89,3.89,0,0,1,126.41,131.67Z"/><path class="cls-5" d="M175.47,146.71a4.91,4.91,0,0,1-1.93.84c-.17-1.2.34-2.31.45-3.48a49.21,49.21,0,0,0,.37-5.94,3.43,3.43,0,0,1,.42-1.81l1.92-4.25a6.12,6.12,0,0,1,2.64,6.08,9,9,0,0,1-1.7,4.56,2.73,2.73,0,0,0-.38,1A6.52,6.52,0,0,1,175.47,146.71Z"/><path class="cls-6" d="M128.25,148.33a1.32,1.32,0,0,1,.09-.3c.08-.12.15-.07.17.06a46.61,46.61,0,0,0,2.17,6.82c0,6.67.56,13.32.75,20A173.31,173.31,0,0,1,128.25,148.33Z"/><path class="cls-7" d="M162.21,171.11a8.73,8.73,0,0,1,6-.8c.23.15.65.42.49.58-1,1,1,1.92.11,2.91a19.28,19.28,0,0,1-6.71.78c-.62.19-1-.2-.81-.67a7.09,7.09,0,0,0,.46-2.31A.53.53,0,0,1,162.21,171.11Z"/><path class="cls-8" d="M162.21,171.11a.77.77,0,0,0-.24,1,1.3,1.3,0,0,1-.28,1.46c-.66.69-.13.85.39,1.05l-2.51,3.56-.42-4.19-.21-4.46A20.72,20.72,0,0,1,162.21,171.11Z"/></svg>